<svg xmlns="http://www.w3.org/2000/svg" viewBox="0 0 442.2 162.71"><g data-name="Layer 2"><g data-name="Layer 1"><path class="4f2415f9-d5bf-4d35-9fdf-c17ee71a6264" d="M10.43 147.77L0 137.35l4.51-4.51 10.43 10.42 10.42-10.42 4.51 4.51-10.42 10.42 10.42 10.43-4.51 4.51-10.42-10.43-10.43 10.43L0 158.2l10.43-10.43zm64.71 6.02l4.51 4.51a14.87 14.87 0 0 1-21.06 0 14.89 14.89 0 0 1 10.53-25.42 14.37 14.37 0 0 1 10.53 4.36l-4.51 4.51a8.51 8.51 0 0 0-12 12 8.5 8.5 0 0 0 12 0zm33.38-20.91h6.38v23.4h17.02v6.39h-23.4v-29.79zm52.16 15.96v-16h6.38v16a7.45 7.45 0 0 0 14.9 0v-16h6.38v16a13.83 13.83 0 1 1-27.66 0zm70.24 13.83h-13.83v-6.38h13.83a2.61 2.61 0 0 0 1.89-.78 2.57 2.57 0 0 0 .78-1.88 2.66 2.66 0 0 0-2.67-2.66h-5.31a9 9 0 0 1 0-18.09h13.82v6.38h-13.82a2.67 2.67 0 0 0-1.88 4.55 2.57 2.57 0 0 0 1.88.78h5.31a9 9 0 1 1 0 18.08zm43.65-29.79v29.79h-6.38v-29.79h6.38zm26.63 0h7.44l7.46 14.89 7.44-14.89h7.45l-14.89 29.79-14.9-29.79zm79.83 0v6.38H364v5.33h12.77v6.38H364v5.31h17.03v6.39h-23.41v-29.79h23.41zm42.58 29.79h-13.83v-6.38h13.83a2.63 2.63 0 0 0 1.89-.78 2.6 2.6 0 0 0 .77-1.88 2.65 2.65 0 0 0-2.66-2.66h-5.32a9 9 0 0 1 0-18.09h13.83v6.38h-13.83a2.67 2.67 0 0 0-1.88 4.55 2.59 2.59 0 0 0 1.88.78h5.32a9 9 0 1 1 0 18.08z"/><path d="M95.4 110.59V25.27h92.5V.57H69.12v59.39l-44.2-40.71L4.02 0H2.64l-.05 19.25-.22 92.22h24.7V50.5l44.61 40.84 21.03 19.25h2.69zM410.3.57H292.57v59.39l-44.2-40.71L227.47 0h-1.38l-.05 19.25-.15 67.16h-95.31v24.18h119.95V50.5l44.61 40.84 21.02 19.25h2.69V25.27h92.51V.57h-1.06z" fill-rule="evenodd" fill="#444445"/><path d="M131.58 42.35h71.14v24.18h-71.14zm215.64 0h71.88v24.18h-71.88zm0 44.94h94.98v24.18h-94.98z" fill="#444445"/></g></g></svg>