<svg xmlns="http://www.w3.org/2000/svg" viewBox="0 0 442.2 162.71"><defs><style>.\34 f2415f9-d5bf-4d35-9fdf-c17ee71a6264{fill:#cb3233;}.\34 f2415f9-d5bf-4d35-9fdf-c17ee71a6264,.f8d2bbd5-abf3-4b58-a7f9-586d7a514312{fill-rule:evenodd;}.f8d2bbd5-abf3-4b58-a7f9-586d7a514312,.fa327fc3-7b36-41e5-97a6-5da34b5fb124{fill:#444445;}</style></defs><title>Asset 1</title><g id="1f965d83-b19f-4d53-9b16-836bfaacd21f" data-name="Layer 2"><g id="4ffd54bb-8baf-487c-b831-6d453a7d1657" data-name="Layer 1"><polygon class="4f2415f9-d5bf-4d35-9fdf-c17ee71a6264" points="10.43 147.77 0 137.35 4.51 132.84 14.94 143.26 25.36 132.84 29.87 137.35 19.45 147.77 29.87 158.2 25.36 162.71 14.94 152.28 4.51 162.71 0 158.2 10.43 147.77 10.43 147.77"/><path class="4f2415f9-d5bf-4d35-9fdf-c17ee71a6264" d="M75.14,153.79l4.51,4.51a14.87,14.87,0,0,1-21.06,0,14.89,14.89,0,0,1,10.53-25.42,14.37,14.37,0,0,1,10.53,4.36l-4.51,4.51a8.51,8.51,0,0,0-12,12,8.5,8.5,0,0,0,12,0Z"/><polygon class="4f2415f9-d5bf-4d35-9fdf-c17ee71a6264" points="108.52 132.88 114.9 132.88 114.9 156.28 131.92 156.28 131.92 162.67 108.52 162.67 108.52 132.88 108.52 132.88"/><path class="4f2415f9-d5bf-4d35-9fdf-c17ee71a6264" d="M160.68,148.84v-16h6.38v16a7.45,7.45,0,0,0,14.9,0v-16h6.38v16a13.83,13.83,0,1,1-27.66,0Z"/><path class="4f2415f9-d5bf-4d35-9fdf-c17ee71a6264" d="M230.92,162.67H217.09v-6.38h13.83a2.61,2.61,0,0,0,1.89-.78,2.57,2.57,0,0,0,.78-1.88,2.66,2.66,0,0,0-2.67-2.66h-5.31a9,9,0,0,1,0-18.09h13.82v6.38H225.61a2.67,2.67,0,0,0-1.88,4.55,2.57,2.57,0,0,0,1.88.78h5.31a9,9,0,1,1,0,18.08Z"/><polygon class="4f2415f9-d5bf-4d35-9fdf-c17ee71a6264" points="274.57 132.88 274.57 162.67 268.19 162.67 268.19 132.88 274.57 132.88 274.57 132.88"/><polygon class="4f2415f9-d5bf-4d35-9fdf-c17ee71a6264" points="301.2 132.88 308.64 132.88 316.1 147.77 323.54 132.88 330.99 132.88 316.1 162.67 301.2 132.88 301.2 132.88"/><polygon class="4f2415f9-d5bf-4d35-9fdf-c17ee71a6264" points="381.03 132.88 381.03 139.26 364 139.26 364 144.59 376.77 144.59 376.77 150.97 364 150.97 364 156.28 381.03 156.28 381.03 162.67 357.62 162.67 357.62 132.88 381.03 132.88 381.03 132.88"/><path class="4f2415f9-d5bf-4d35-9fdf-c17ee71a6264" d="M423.61,162.67H409.78v-6.38h13.83a2.63,2.63,0,0,0,1.89-.78,2.6,2.6,0,0,0,.77-1.88,2.65,2.65,0,0,0-2.66-2.66h-5.32a9,9,0,0,1,0-18.09h13.83v6.38H418.29a2.67,2.67,0,0,0-1.88,4.55,2.59,2.59,0,0,0,1.88.78h5.32a9,9,0,1,1,0,18.08Z"/><polygon class="f8d2bbd5-abf3-4b58-a7f9-586d7a514312" points="95.4 110.59 95.4 91.34 95.4 25.27 187.9 25.27 187.9 19.25 187.9 0.57 69.12 0.57 69.12 19.25 69.12 59.96 24.92 19.25 4.02 0 2.64 0 2.59 19.25 2.37 111.47 27.07 111.47 27.07 110.59 27.07 91.34 27.07 50.5 71.68 91.34 92.71 110.59 95.4 110.59"/><polygon class="f8d2bbd5-abf3-4b58-a7f9-586d7a514312" points="410.3 0.57 292.57 0.57 292.57 19.25 292.57 59.96 248.37 19.25 227.47 0 226.09 0 226.04 19.25 225.89 86.41 130.58 86.41 130.58 110.59 138.05 110.59 249.22 110.59 250.53 110.59 250.53 91.34 250.53 50.5 295.14 91.34 316.16 110.59 318.85 110.59 318.85 91.34 318.85 25.27 411.36 25.27 411.36 0.57 410.3 0.57"/><rect class="fa327fc3-7b36-41e5-97a6-5da34b5fb124" x="131.58" y="42.35" width="71.14" height="24.18"/><rect class="fa327fc3-7b36-41e5-97a6-5da34b5fb124" x="347.22" y="42.35" width="71.88" height="24.18"/><rect class="fa327fc3-7b36-41e5-97a6-5da34b5fb124" x="347.22" y="87.29" width="94.98" height="24.18"/></g></g></svg>