<svg xmlns="http://www.w3.org/2000/svg" viewBox="0 0 249.25 180.54"><defs><style>.\34 12d3ce5-ec19-4d8a-92fa-a22f01b9a09d{fill:#444445;fill-rule:evenodd;}.dc3fb27c-6614-46d3-8aee-e0ba9ef5b5c7{fill:#cb3233;}.\34 c726065-9e07-4d2b-aa30-0aedc1c1553c{fill:none;stroke:#444;stroke-miterlimit:10;stroke-width:1.1px;}</style></defs><title>Asset 2</title><g id="6dbd0c6d-21c2-4716-adfe-90cb63268e0e" data-name="Layer 2"><g id="91ba09b1-40d1-4dac-8692-536c94c0eddf" data-name="Layer 1"><polygon class="412d3ce5-ec19-4d8a-92fa-a22f01b9a09d" points="124.87 155.61 124.87 132.68 124.87 53.99 235.04 53.99 235.04 46.82 235.04 24.57 93.57 24.57 93.57 46.82 93.57 95.31 40.92 46.82 16.03 23.89 14.39 23.89 14.33 46.82 14.07 156.65 43.48 156.65 43.48 155.61 43.48 132.68 43.48 84.04 96.62 132.68 121.66 155.61 124.87 155.61"/><polygon class="dc3fb27c-6614-46d3-8aee-e0ba9ef5b5c7" points="220.37 58.51 186.13 92.75 151.87 58.51 137.05 73.33 171.31 107.57 137.05 141.83 151.87 156.64 186.13 122.38 220.37 156.64 235.18 141.83 200.95 107.57 235.18 73.33 220.37 58.51"/><rect class="4c726065-9e07-4d2b-aa30-0aedc1c1553c" x="0.55" y="0.55" width="248.15" height="179.44"/></g></g></svg>