<svg xmlns="http://www.w3.org/2000/svg" viewBox="0 0 445.82 167.52"><g data-name="Layer 2"><g data-name="Layer 1"><path d="M12.55 149.27L2.12 138.85l4.51-4.51 10.43 10.42 10.42-10.42 4.51 4.51-10.42 10.42 10.42 10.43-4.51 4.51-10.42-10.43-10.43 10.43-4.51-4.51 10.43-10.43zm64.71 6.02l4.51 4.51a14.87 14.87 0 0 1-21.06 0 14.89 14.89 0 0 1 10.53-25.42 14.37 14.37 0 0 1 10.53 4.36l-4.51 4.51a8.52 8.52 0 1 0 0 12zm33.38-20.91h6.38v23.4h17.02v6.39h-23.4v-29.79zm52.16 15.96v-16h6.38v16a7.45 7.45 0 0 0 14.9 0v-16h6.38v16a13.83 13.83 0 1 1-27.66 0zm70.2 13.83h-13.78v-6.38H233a2.6 2.6 0 0 0 1.89-.78 2.57 2.57 0 0 0 .78-1.88 2.66 2.66 0 0 0-2.67-2.66h-5.31a9 9 0 0 1 0-18.09h13.83v6.38h-13.79a2.67 2.67 0 0 0-1.88 4.55 2.57 2.57 0 0 0 1.88.78H233a9 9 0 1 1 0 18.08zm43.69-29.79v29.79h-6.38v-29.79h6.38zm26.63 0h7.44l7.46 14.89 7.44-14.89h7.45l-14.89 29.79-14.9-29.79zm79.83 0v6.38h-17.03v5.33h12.77v6.38h-12.77v5.31h17.03v6.39h-23.41v-29.79h23.41zm42.58 29.79H411.9v-6.38h13.83a2.63 2.63 0 0 0 1.89-.78 2.6 2.6 0 0 0 .77-1.88 2.65 2.65 0 0 0-2.66-2.66h-5.32a9 9 0 0 1 0-18.09h13.83v6.38h-13.83a2.67 2.67 0 0 0-1.88 4.55 2.59 2.59 0 0 0 1.88.78h5.32a9 9 0 1 1 0 18.08zM97.52 112.09V26.77h92.5V2.07H71.24v59.39l-44.2-40.71L6.14 1.5H4.76l-.05 19.25-.22 92.22h24.7V52L73.8 92.84l21.03 19.25h2.69zM412.42 2.07H294.69v59.39l-44.2-40.71-20.9-19.25h-1.38l-.05 19.25-.15 67.16H132.7v24.18h119.95V52l44.61 40.84 21.02 19.25h2.69V26.77h92.51V2.07h-1.06z" fill="#fff" stroke="#444" stroke-miterlimit="10" stroke-width="3" fill-rule="evenodd"/><path class="11d83daf-e09e-42e2-bcfd-283429d20e83" d="M133.7 43.85h71.14v24.18H133.7zm215.64 0h71.88v24.18h-71.88zm0 44.94h94.98v24.18h-94.98z"/></g></g></svg>