<svg xmlns="http://www.w3.org/2000/svg" viewBox="0 0 445.82 167.52"><defs><style>.\31 1d83daf-e09e-42e2-bcfd-283429d20e83,.b4d8d712-9121-4a0a-873e-3e38141c387f{fill:#fff;stroke:#444;stroke-miterlimit:10;stroke-width:3px;}.b4d8d712-9121-4a0a-873e-3e38141c387f{fill-rule:evenodd;}</style></defs><title>Asset 3</title><g id="17e10694-1d1e-483a-b43e-745765a0eb11" data-name="Layer 2"><g id="ec95195c-c536-41f7-81c4-435ed30fe555" data-name="Layer 1"><polygon class="b4d8d712-9121-4a0a-873e-3e38141c387f" points="12.55 149.27 2.12 138.85 6.63 134.34 17.06 144.76 27.48 134.34 31.99 138.85 21.57 149.27 31.99 159.7 27.48 164.21 17.06 153.78 6.63 164.21 2.12 159.7 12.55 149.27 12.55 149.27"/><path class="b4d8d712-9121-4a0a-873e-3e38141c387f" d="M77.26,155.29l4.51,4.51a14.87,14.87,0,0,1-21.06,0,14.89,14.89,0,0,1,10.53-25.42,14.37,14.37,0,0,1,10.53,4.36l-4.51,4.51a8.52,8.52,0,1,0,0,12Z"/><polygon class="b4d8d712-9121-4a0a-873e-3e38141c387f" points="110.64 134.38 117.02 134.38 117.02 157.78 134.04 157.78 134.04 164.17 110.64 164.17 110.64 134.38 110.64 134.38"/><path class="b4d8d712-9121-4a0a-873e-3e38141c387f" d="M162.8,150.34v-16h6.38v16a7.45,7.45,0,0,0,14.9,0v-16h6.38v16a13.83,13.83,0,1,1-27.66,0Z"/><path class="b4d8d712-9121-4a0a-873e-3e38141c387f" d="M233,164.17H219.22v-6.38H233a2.6,2.6,0,0,0,1.89-.78,2.57,2.57,0,0,0,.78-1.88,2.66,2.66,0,0,0-2.67-2.66h-5.31a9,9,0,0,1,0-18.09h13.83v6.38H227.73a2.67,2.67,0,0,0-1.88,4.55,2.57,2.57,0,0,0,1.88.78H233a9,9,0,1,1,0,18.08Z"/><polygon class="b4d8d712-9121-4a0a-873e-3e38141c387f" points="276.69 134.38 276.69 164.17 270.31 164.17 270.31 134.38 276.69 134.38 276.69 134.38"/><polygon class="b4d8d712-9121-4a0a-873e-3e38141c387f" points="303.32 134.38 310.76 134.38 318.22 149.27 325.66 134.38 333.11 134.38 318.22 164.17 303.32 134.38 303.32 134.38"/><polygon class="b4d8d712-9121-4a0a-873e-3e38141c387f" points="383.15 134.38 383.15 140.76 366.12 140.76 366.12 146.09 378.89 146.09 378.89 152.47 366.12 152.47 366.12 157.78 383.15 157.78 383.15 164.17 359.74 164.17 359.74 134.38 383.15 134.38 383.15 134.38"/><path class="b4d8d712-9121-4a0a-873e-3e38141c387f" d="M425.73,164.17H411.9v-6.38h13.83a2.63,2.63,0,0,0,1.89-.78,2.6,2.6,0,0,0,.77-1.88,2.65,2.65,0,0,0-2.66-2.66h-5.32a9,9,0,0,1,0-18.09h13.83v6.38H420.41a2.67,2.67,0,0,0-1.88,4.55,2.59,2.59,0,0,0,1.88.78h5.32a9,9,0,1,1,0,18.08Z"/><polygon class="b4d8d712-9121-4a0a-873e-3e38141c387f" points="97.52 112.09 97.52 92.84 97.52 26.77 190.02 26.77 190.02 20.75 190.02 2.07 71.24 2.07 71.24 20.75 71.24 61.46 27.04 20.75 6.14 1.5 4.76 1.5 4.71 20.75 4.49 112.97 29.19 112.97 29.19 112.09 29.19 92.84 29.19 52 73.8 92.84 94.83 112.09 97.52 112.09"/><polygon class="b4d8d712-9121-4a0a-873e-3e38141c387f" points="412.42 2.07 294.69 2.07 294.69 20.75 294.69 61.46 250.49 20.75 229.59 1.5 228.21 1.5 228.16 20.75 228.01 87.91 132.7 87.91 132.7 112.09 140.17 112.09 251.34 112.09 252.65 112.09 252.65 92.84 252.65 52 297.26 92.84 318.28 112.09 320.97 112.09 320.97 92.84 320.97 26.77 413.48 26.77 413.48 2.07 412.42 2.07"/><rect class="11d83daf-e09e-42e2-bcfd-283429d20e83" x="133.7" y="43.85" width="71.14" height="24.18"/><rect class="11d83daf-e09e-42e2-bcfd-283429d20e83" x="349.34" y="43.85" width="71.88" height="24.18"/><rect class="11d83daf-e09e-42e2-bcfd-283429d20e83" x="349.34" y="88.79" width="94.98" height="24.18"/></g></g></svg>